<?xml version="1.0" encoding="UTF-8"?>
<svg id="Layer_3" data-name="Layer 3" xmlns="http://www.w3.org/2000/svg" viewBox="0 0 948.62 848.83">
  <defs>
    <style>
      .cls-1 {
        font-family: ButlerStencil-Light, 'Butler Stencil';
        font-size: 136.92px;
        font-weight: 300;
        letter-spacing: .07em;
      }

      .cls-1, .cls-2 {
        fill: #6a2d75;
      }

      .cls-2 {
        fill-rule: evenodd;
      }
    </style>
  </defs>
  <g id="Layer_1" data-name="Layer 1">
    <path class="cls-2" d="M493.59,154.57c-.52-2.58-1.06-5.16-1.62-7.73.47-.02.93-.04,1.39-.07.1,2.6.17,5.2.23,7.8Z"/>
    <path class="cls-2" d="M493.72,155.23s-.08.01-.12.02c0-.22,0-.45,0-.68.04.22.09.44.13.66Z"/>
    <path class="cls-2" d="M323.14,530.96c6.63.71,12.24,5.19,14.31,11.52h0s40.82,125.05,40.82,125.05c.03.1-.04.21-.15.21h-23.8c-.07,0-.14-.05-.15-.12l-24.41-102.63c-2.45-10.3-13.03-16.46-23.2-13.49l-59.07,17.22c-12.86,3.75-20.55,16.89-17.53,29.94l17.06,73.58c.02.1-.05.19-.15.19h-43.58c-.1,0-.17-.08-.16-.18,4.01-33.45,8.01-66.89,12.02-100.34.37-3.05,1.97-5.81,4.43-7.65,32.28-24.22,66.47-37.29,103.56-33.3Z"/>
    <path class="cls-2" d="M844.98,421.14c2.34,98.97-23.13,194.4-77.27,251.29l-43.23-30.07c28.77-86.33,33.92-175.69,24.36-223.5-46.87-10.11-97.46-32.26-146.42-65.61l-.05-1.1c-.18.23-.36.46-.53.7.19.14.39.27.58.4l13.81,315.27c.09,2.13-1.61,3.91-3.74,3.91h-119.42c-1.72,0-3.22-1.18-3.63-2.85l-38.39-156.17c-.51-2.06-2.64-3.29-4.68-2.69l-4.26,1.24c-1.71.5-2.84,2.14-2.68,3.92l13.09,147.79c.19,2.19-1.53,4.07-3.73,4.07h-16.16c-2,0-3.65-1.58-3.74-3.58l-6.42-146.48-.74-16.91c-.04-.87.23-1.73.76-2.43.38-.5.76-.99,1.13-1.47h-.49c.31-.38.62-.78.94-1.21.16-.21.32-.43.48-.65,1.78-2.43,3.67-5.43,5.61-8.65.27-.45.54-.9.81-1.35.08-.14.17-.28.25-.42,3.75-6.28,7.61-13.12,11.07-18.04,1.12-1.59,3.24-2.06,4.93-1.09,15.35,8.8,30.02,14.92,43.59,18.9,1.34.39,2.35,1.47,2.63,2.84,5.03,24.55,2.58,70.42-11.85,115.18-.51,1.57.06,3.28,1.41,4.23l17.75,12.34c1.56,1.09,3.68.83,4.94-.59,26.78-30,39.42-78.53,38.36-128.88v-.36c-.27-1.36-.56-2.71-.85-4.06-9.36-43.11-28.81-82.92-57.95-108.93-2-1.79-1.57-5.03.86-6.19,1.39-.66,2.13-2.02,2.13-3.38,0-1.03-.41-2.07-1.29-2.83l-41.33-35.72c-1.08-.93-1.53-2.39-1.17-3.77l.87-3.33c.7-2.67-1.64-5.16-4.35-4.62l-40.54,8.03c-.66.13-1.27.44-1.78.89l-13.1,11.77c-1.04.93-2.51,1.21-3.82.72l-60.97-22.86c-1.15-.43-2.44-.27-3.45.44-52.21,36.5-131.46,87.57-161.22,100.61-.73.32-1.34.85-1.74,1.53l-28.34,48.05c-.11.19-.21.4-.29.61l-18.96,51.8c-1.15,3.15,2.1,6.11,5.13,4.67l9.16-4.37c2.19-1.05,4.77.23,5.27,2.6l31.09,147.13c.49,2.33-1.29,4.52-3.67,4.52h-12.09c-1.59,0-3.01-1.01-3.54-2.51L39.82,387.87c-.74-2.11-3.14-3.11-5.15-2.15l-29.3,13.99c-3.03,1.44-6.28-1.52-5.13-4.67l39.02-106.66c.08-.21.18-.42.29-.61l54.65-92.63c.4-.68,1.01-1.21,1.74-1.53C152.04,169.38,305.29,70.62,405.22.68c1.01-.71,2.3-.87,3.46-.44l121.73,45.65,29.61-26.6L650.24,1.43l-5.64,21.61,90.22,78.01-19.74,9.39c62.03,50.75,102.44,133.45,120.29,222.73-46.05,6.58-113.71-3.76-189.83-48.87-.02.02-.04.05-.06.07,183.64,132.62,292.91,60.08,273.53-142.91,64.41,170.71,16.49,260.31-74.03,279.68Z"/>
    <path class="cls-2" d="M602.42,353.25c-.19-.13-.39-.26-.58-.4.17-.24.35-.47.53-.7l.05,1.1Z"/>
    <polygon class="cls-2" points="98.58 590.67 118.32 632.96 125.83 672.43 23.4 672.43 8.36 640.48 34.67 400.83 98.58 590.67"/>
    <path class="cls-2" d="M602.42,353.25c-.19-.13-.39-.26-.58-.4.17-.24.35-.47.53-.7l.05,1.1Z"/>
    <text class="cls-1" transform="translate(6.51 812.54) scale(1.04 1)"><tspan x="0" y="0">MamaMooD</tspan></text>
  </g>
</svg>